<svg width="42" height="52" viewBox="0 0 42 52" fill="none" xmlns="http://www.w3.org/2000/svg">
<g clip-path="url(#clip0_256_2)">
<path d="M1.95173 23.5133C1.31414 23.6872 0.692035 24.1042 0.338392 24.7229C-0.368893 25.9602 0.0699337 27.5638 1.30639 28.2708L19.3757 38.592C20.1682 39.0453 21.162 39.0453 21.9571 38.592L40.0264 28.2708C41.2654 27.5638 41.7017 25.9602 40.9944 24.7229C40.2871 23.4857 38.6841 23.0483 37.4451 23.7553L20.6664 33.3509L3.88772 23.7553C3.26821 23.4018 2.58931 23.3396 1.95173 23.5133ZM1.95173 36.4147C1.31414 36.5886 0.692035 37.0056 0.338392 37.6244C-0.368893 38.8616 0.0699337 40.4653 1.30639 41.1723L19.3757 51.4934C20.1682 51.9468 21.162 51.9468 21.9571 51.4934L40.0264 41.1723C41.2654 40.4653 41.7017 38.8616 40.9944 37.6244C40.2871 36.3871 38.6841 35.9498 37.4451 36.6568L20.6664 46.2524L3.88772 36.6568C3.26821 36.3033 2.58931 36.2411 1.95173 36.4147Z" fill="black"/>
<path d="M19.3742 0.506706L1.3049 10.8261C-0.429758 11.8165 -0.429758 14.3504 1.3049 15.3408C3.56356 16.6307 17.1156 24.3702 19.3742 25.6602C20.1667 26.1134 21.1605 26.1134 21.9556 25.6602L40.0249 15.3408C41.7595 14.3504 41.7595 11.8165 40.0249 10.8261L21.9556 0.506706C21.1631 0.0534287 20.1693 0.0534287 19.3742 0.506706ZM20.6649 5.74687L33.4915 13.0835L20.6649 20.42C18.001 18.8984 12.1827 15.5647 7.83827 13.0835L20.6649 5.74687Z" fill="#1EB767"/>
</g>
<defs>
<clipPath id="clip0_256_2">
<rect width="42" height="52" fill="white"/>
</clipPath>
</defs>
</svg>
