<svg width="51" height="39" viewBox="0 0 51 39" fill="none" xmlns="http://www.w3.org/2000/svg">
<g clip-path="url(#clip0_255_2)">
<path fill-rule="evenodd" clip-rule="evenodd" d="M7.26452 11.8325C7.64557 8.19024 10.852 5.41651 14.6814 5.41651H36.4469C40.2763 5.41651 43.4827 8.19024 43.8637 11.8325L44.7373 20.1826C47.8079 21.271 50.0605 23.9695 50.3729 27.2053C50.4116 26.9956 50.4212 26.7775 50.398 26.5552L48.8083 11.3599C48.1732 5.28938 42.8293 0.666504 36.4469 0.666504H14.6814C8.299 0.666504 2.95502 5.28939 2.31995 11.3599L0.73029 26.5552C0.707086 26.777 0.716596 26.9947 0.755071 27.204C1.06802 23.9686 3.32064 21.2706 6.39099 20.1825L7.26452 11.8325Z" fill="black"/>
<path fill-rule="evenodd" clip-rule="evenodd" d="M0.717773 27.979C0.717773 23.3881 4.61118 19.6665 9.41393 19.6665H41.714C46.5167 19.6665 50.4101 23.3881 50.4101 27.979V30.354C50.4101 34.9449 46.5167 38.6665 41.714 38.6665H9.41393C4.61118 38.6665 0.717773 34.9449 0.717773 30.354V27.979ZM9.41393 24.4165C7.35561 24.4165 5.68701 26.0115 5.68701 27.979V30.354C5.68701 32.3215 7.35561 33.9165 9.41393 33.9165H41.714C43.7723 33.9165 45.4409 32.3215 45.4409 30.354V27.979C45.4409 26.0115 43.7723 24.4165 41.714 24.4165H9.41393ZM13.1409 29.1665C13.1409 30.4782 12.0285 31.5415 10.6562 31.5415C9.28403 31.5415 8.17162 30.4782 8.17162 29.1665C8.17162 27.8548 9.28403 26.7915 10.6562 26.7915C12.0285 26.7915 13.1409 27.8548 13.1409 29.1665ZM18.1101 31.5415C19.4823 31.5415 20.5947 30.4782 20.5947 29.1665C20.5947 27.8548 19.4823 26.7915 18.1101 26.7915C16.7379 26.7915 15.6255 27.8548 15.6255 29.1665C15.6255 30.4782 16.7379 31.5415 18.1101 31.5415Z" fill="black"/>
<path d="M10.9142 31.9511C12.4757 31.9511 13.7415 30.7411 13.7415 29.2485C13.7415 27.7559 12.4757 26.5459 10.9142 26.5459C9.35269 26.5459 8.08685 27.7559 8.08685 29.2485C8.08685 30.7411 9.35269 31.9511 10.9142 31.9511Z" fill="#1EB767"/>
<path d="M18.1105 31.9511C19.672 31.9511 20.9378 30.7411 20.9378 29.2485C20.9378 27.7559 19.672 26.5459 18.1105 26.5459C16.549 26.5459 15.2832 27.7559 15.2832 29.2485C15.2832 30.7411 16.549 31.9511 18.1105 31.9511Z" fill="#1EB767"/>
</g>
<defs>
<clipPath id="clip0_255_2">
<rect width="51" height="39" fill="white"/>
</clipPath>
</defs>
</svg>
